<svg xmlns="http://www.w3.org/2000/svg" width="178" height="31" fill="none">
  <path fill="#000" d="M119.79 13.42c1.96-.01 3.9-.24 5.81-.69v-.91c-.06-2.15-.1-4.3-.2-6.45a9.47 9.47 0 0 0-.4-2 3.15 3.15 0 0 1 .18-1.87c.07-.25.22-.64.58-.53a.9.9 0 0 1 .47.55c.15.56.24 1.13.28 1.71.13 2.65.23 5.3.34 7.94 0 .43.08.86.11 1.27 1.17.37 2.39-.26 3.47.4a1 1 0 0 1-.75.83c-.57.2-1.16.36-1.75.48-.91.18-1 .28-.94 1.2 0 .37.09.74.15 1.22h1.24c.56-.06 1 .08 1.14.67.1.22.2.44.33.65l-1.29.31-1.28.27a18.2 18.2 0 0 0 .35 5.84L130 21c.91.37 1.17 1 .8 1.76-.37.76-.68 1.54-1.11 2.26-.43.72-1 1.54-1.57 2.3-.17.24-.33.48-.51.71-.33.43-.63.43-1 0a2 2 0 0 1-.56-1.34v-2.1c0-1.83.08-3.66.14-5.49 0-.51-.09-.65-.58-.63l-5.23.26c-.15.02-.29.05-.43.09a5.7 5.7 0 0 0-.17 2.69c.25 1.82.33 3.66.22 5.49a1.1 1.1 0 0 1-.59 1.08c-.45.24-.72.16-.87-.32a4.09 4.09 0 0 1-.15-.85c-.16-1.33-.34-2.66-.45-4-.07-.93 0-1.86-.06-2.79v-1.27l-1.14-.06h-2.19c-.34 0-.67-.11-.67-.52 0-.41.29-.38.56-.42.43 0 .86-.13 1.3-.16.44-.03.82 0 1.22 0 .93-.07 1-.17.94-1.13 0-.5 0-1-.08-1.48 0 0 0-.1-.14-.27h-3.34c-.24-.53 0-.79.33-.93.3-.1.61-.17.93-.19h1.48c.7 0 .79-.12.74-.83-.12-1.51-.19-3-.33-4.52a11.7 11.7 0 0 0-1.36-4.39 2.21 2.21 0 0 0-1.25-1 1.31 1.31 0 0 0-1.84.81c-.17.61-.3 1.23-.37 1.86 0 .23-.03.46-.09.68-.13.21-.33.37-.57.45-.11 0-.38-.26-.44-.44a4.64 4.64 0 0 1 .63-4.14 1.57 1.57 0 0 1 1.24-.72 4.22 4.22 0 0 1 4 1.83c.15.21.29.44.45.65a6.1 6.1 0 0 1 1.13 3.41c.11 1.71.31 3.41.49 5.11 0 .34.15.67.24 1.08m6.27 3.31a3.7 3.7 0 0 0-.26-2.18h-5.35c-.56 0-.7.13-.69.66 0 .74.11 1.48.18 2.26a29.7 29.7 0 0 0 6.12-.76"/>
  <path fill="#000" d="M127.16 28.82a1.12 1.12 0 0 1-.84-.47 2.47 2.47 0 0 1-.66-1.62v-2.11c0-1.83.08-3.66.14-5.49v-.19c-1.81.09-3.55.17-5.3.27h-.1c-.19.73-.22 1.5-.09 2.25.25 1.74.34 3.5.25 5.25V27a1.56 1.56 0 0 1-1.45 1.64c-.24 0-.67-.1-.87-.76A3.9 3.9 0 0 1 118 27l-.14-1.17c-.12-1-.24-2-.33-3-.05-.68-.05-1.37-.05-2v-1.66h-2.89c-.81 0-1.1-.5-1.11-1-.01-.5.31-.78 1-.86l.39-.06.92-.11H117c.19 0 .37-.03.55-.09v-1.91h-3.45l-.12-.26a1.17 1.17 0 0 1-.07-.94 1 1 0 0 1 .64-.58c.34-.12.7-.2 1.06-.21h1.84v-.34l-.12-1.71c-.06-.93-.12-1.87-.21-2.8-.15-1.48-.6-2.92-1.31-4.22-.21-.4-.57-.69-1-.82a1.61 1.61 0 0 0-.5-.09c-.23 0-.57.07-.79.63-.13.4-.23.8-.29 1.2 0 .19 0 .38-.08.56-.08.18 0 .13 0 .2.01.22-.04.43-.14.62a1.38 1.38 0 0 1-.84.65h-.12c-.4 0-.76-.48-.84-.74a5.15 5.15 0 0 1 .16-3.63c.15-.32.33-.62.53-.9a2 2 0 0 1 1.54-.86 4.68 4.68 0 0 1 4.4 2l.2.3a6.63 6.63 0 0 1 1.46 4c.08 1.34.23 2.71.37 4l.13 1.1a5.42 5.42 0 0 0 .13.7c1.26 0 2.51-.14 3.74-.42.42-.08.85-.16 1.28-.22v-2.2c0-1.59-.07-3.18-.15-4.77a8.56 8.56 0 0 0-.38-1.86c-.16-.71-.1-1.46.18-2.13.06-.21.26-.84.88-.84a1 1 0 0 1 .24 0 1.31 1.31 0 0 1 .77.87c.16.59.26 1.19.3 1.79l.22 5.11.12 2.83c0 .29 0 .58.07.87v.06c.37.05.75.05 1.12 0h.61c.54-.02 1.08.11 1.55.39l.24.14v.28a1.39 1.39 0 0 1-1 1.19c-.6.2-1.2.38-1.82.5-.2.03-.4.09-.58.17v.57c0 .24 0 .49.09.76v.06h.39a3 3 0 0 0 .42 0 1.36 1.36 0 0 1 1.6 1c0 .07.08.16.15.29l.15.28.26.5-1 .24-.82.19-.88.19h-.07v.87c-.08 1.2-.04 2.4.14 3.6l2.06-2.83.32.13a1.9 1.9 0 0 1 1.14 1 1.66 1.66 0 0 1-.11 1.32l-.35.74c-.24.52-.48 1.05-.78 1.56-.3.51-.74 1.13-1.12 1.66l-.47.66-.09.13c-.14.2-.28.41-.43.6a1.08 1.08 0 0 1-.96.54Zm-1.43-10.75a.9.9 0 0 1 .69.24 1.1 1.1 0 0 1 .23.84l-.13 5.49v2.09c.01.4.18.77.46 1.05.05.06.1.12.17.16.06-.04.1-.1.15-.15l.4-.56.09-.13.48-.67c.37-.52.75-1.05 1.08-1.6.27-.48.52-.97.74-1.48l.35-.76a.8.8 0 0 0 .08-.62.78.78 0 0 0-.36-.38l-2.7 3.72-.26-.84c-.4-1.56-.54-3.18-.4-4.78v-1.55l.75-.16.86-.18.73-.17c0-.08-.06-.15-.09-.24-.1-.33-.29-.39-.68-.36-.3.03-.59.03-.88 0h-.78l-.11-.8c0-.29-.07-.55-.09-.8-.11-1.21.22-1.48 1.28-1.68.58-.11 1.14-.27 1.69-.47a.8.8 0 0 0 .35-.19c-.44-.1-.9-.13-1.35-.08a5.4 5.4 0 0 1-1.7-.12l-.28-.09-.06-.67c0-.3-.06-.6-.08-.91l-.06-2.82c-.07-1.7-.14-3.41-.23-5.1a7.9 7.9 0 0 0-.27-1.63.62.62 0 0 0-.13-.2l-.08.2a2.75 2.75 0 0 0-.17 1.62c.22.67.36 1.36.42 2.06.07 1.59.11 3.19.15 4.79v2.97l-.37.05-1.62.28c-1.16.26-2.35.4-3.54.44h-1.06l-.08-.32a3.18 3.18 0 0 0-.09-.36c-.07-.25-.12-.5-.15-.76l-.08-1.1c-.14-1.34-.29-2.72-.38-4.08a5.63 5.63 0 0 0-1.05-3.18l-.26-.39-.19-.27a3.77 3.77 0 0 0-3.61-1.64 1.14 1.14 0 0 0-.91.53 4.2 4.2 0 0 0-.57 3.75v.07c.07-.05.13-.1.17-.18v-.53c0-.11.06-.34.08-.52.05-.48.16-.96.31-1.42a1.74 1.74 0 0 1 2.38-1.06c.65.2 1.19.64 1.51 1.24A12 12 0 0 1 118 8.21c.09.95.16 1.89.22 2.83l.12 1.7a1.3 1.3 0 0 1-.21 1 1.25 1.25 0 0 1-1 .29h-1.46c-.28.02-.55.07-.81.16l-.14.08H118l.2.36c.07.1.1.2.12.32v1.48c.08 1.21-.17 1.51-1.35 1.59h-1.22c-.29 0-.58.06-.87.1l-.4.06h-.15c.07.02.14.02.21 0h3.76v2.49c0 .64 0 1.31.06 1.95.08 1 .2 2 .32 2.93l.14 1.18c.02.22.06.43.11.64l.07.15.18-.09a.68.68 0 0 0 .37-.7v-.03c.08-1.7 0-3.4-.23-5.08a6.14 6.14 0 0 1 .18-2.89l.08-.24.37-.09c.12-.04.25-.06.38-.07l5.23-.26h.17Zm-5.42-.13h-.78v-.39l-.06-.7c-.06-.54-.11-1.06-.12-1.59a1.12 1.12 0 0 1 .24-.83 1.17 1.17 0 0 1 .89-.28h5.63l.12.26c.33.76.44 1.6.3 2.41v.32l-.32.06-1.19.22c-1.55.32-3.13.5-4.71.52ZM120.2 15v.19c0 .5.06 1 .11 1.53v.31c1.5-.04 2.99-.23 4.45-.55l.87-.16c.05-.46 0-.92-.15-1.36h-5l-.28.04Zm-26.89 8.24a6.71 6.71 0 0 1-3.09 3.26 3 3 0 0 1-1.87 0 1.48 1.48 0 0 1-.86-1.5c-.02-.81.04-1.62.17-2.42.22-1.44.45-2.87.79-4.28.47-1.92 1-3.8 1.59-5.71.25-.89.49-1.79.76-2.68L92 6c.08-.24.13-.49.2-.78a2.28 2.28 0 0 0-.48-.09c-2.14.2-4.3.2-6.44 0-.96-.01-1.92.03-2.87.12-1.3.07-2.61.13-3.91.17h-2.46c.09.35.15.59.23.82.5 1.43 1.18 2.78 1.79 4.16.93 2.1 1.68 4.27 2.49 6.42.45 1.16.88 2.34 1.29 3.51.45 1.54.36 3.2-.27 4.67C81 26.57 80 27.12 78 26.83a3 3 0 0 1-2.43-2 1 1 0 0 1-.12-.58.88.88 0 0 1 .43-.56.68.68 0 0 1 .58.23c.25.35.41.77.65 1.13a1.15 1.15 0 0 0 1.78.44c.5-.25.9-.66 1.16-1.15l.53-1.1a2 2 0 0 0 .1-1.69c-.27-.71-.51-1.43-.78-2.13l-1.65-4.22a138.18 138.18 0 0 0-4.7-11v-.18c.18-.45.59-.39 1-.39 1.37 0 2.73.05 4.1 0 .64 0 1.28-.09 1.91-.13 1-.07 2-.16 3-.19 2.79-.08 5.59-.13 8.38-.2.72 0 1.45-.12 2.17-.16.2-.03.4-.03.61 0 .56.14.72.4.53 1-.28.8-.59 1.58-.9 2.37-.57 1.46-1.13 2.93-1.74 4.37A50.4 50.4 0 0 0 91 16.33c-.56 1.83-1.13 3.67-1.72 5.49-.24.72-.24 1.5 0 2.23.29.92.89 1.06 1.65.47.59-.46 1.22-.89 1.84-1.32.12-.06.25-.1.38-.12l.14.16"/>
  <path fill="#000" d="M78.94 27.34c-.33 0-.67-.02-1-.08A3.45 3.45 0 0 1 75.19 25a1.37 1.37 0 0 1-.13-.87 1.35 1.35 0 0 1 .67-.84H76a1.17 1.17 0 0 1 .85.42c.15.22.29.44.41.68.08.16.16.32.26.47.28.44.48.49.62.49.2-.01.4-.08.57-.19.44-.21.79-.56 1-1l.54-1.1a1.62 1.62 0 0 0 .08-1.34l-.35-.95-.43-1.18-1-2.61-.63-1.61c-1.44-3.6-2.92-7.37-4.73-11a.67.67 0 0 1-.07-.27v-.27a1.1 1.1 0 0 1 1.12-.66h4.35c.4 0 .8 0 1.21-.07l.67-.06.86-.04c.74-.06 1.49-.11 2.23-.13 1.47-.05 2.93-.08 4.4-.11l4-.09c.43 0 .86 0 1.28-.09l.87-.07c.25-.01.5.01.75.07a1.17 1.17 0 0 1 .82.54 1.18 1.18 0 0 1 0 1c-.27.77-.56 1.53-.86 2.29l-.46 1.16c-.42 1.1-.86 2.23-1.33 3.32a21.93 21.93 0 0 0-1 3.44c-.16.7-.34 1.42-.55 2.13-.56 1.83-1.13 3.67-1.73 5.5a3.2 3.2 0 0 0 0 2c.07.23.2.52.4.52a1 1 0 0 0 .56-.27c.54-.41 1.1-.8 1.66-1.19l.2-.14c.12-.07.26-.13.4-.16l.38-.11.52.62-.14.26a7.05 7.05 0 0 1-3.3 3.45 3.4 3.4 0 0 1-2.17 0A1.86 1.86 0 0 1 87.05 25c-.02-.84.04-1.67.17-2.5.24-1.54.47-2.93.81-4.31.34-1.38.73-2.74 1.11-4.07l.47-1.65.17-.6c.2-.7.39-1.4.6-2.09l.71-2.31.49-1.61.08-.29c-2.13.2-4.28.2-6.41 0-.61-.02-1.23 0-1.84.06-.33 0-.65.06-1 .07h-.15c-1.25.06-2.51.12-3.77.16h-1.9l.07.24c.35 1 .81 2 1.25 3l.53 1.18c.69 1.55 1.29 3.17 1.87 4.73L81 16.7c.45 1.17.88 2.35 1.29 3.53a7.35 7.35 0 0 1-.29 4.89 2.93 2.93 0 0 1-3.06 2.22ZM76 24.1a.66.66 0 0 0-.14.25c.02.09.05.17.09.25a2.6 2.6 0 0 0 2.1 1.8c1.72.26 2.6-.17 3.07-1.55.57-1.37.67-2.9.26-4.33-.41-1.18-.84-2.34-1.27-3.51l-.64-1.7a74.78 74.78 0 0 0-1.85-4.69l-.52-1.16c-.48-.98-.9-1.98-1.28-3a5.83 5.83 0 0 1-.16-.54L75.47 5h3c1.25 0 2.5-.1 3.75-.15h.15l1-.07c.66-.07 1.33-.1 2-.06 2.12.2 4.24.2 6.36 0h.09c.12 0 .24.02.35.06h.17l.45.08-.17.72c0 .19-.09.37-.14.54l-.49 1.61a154.35 154.35 0 0 0-1.3 4.37l-.17.6-.52 1.69a119 119 0 0 0-1.1 4 45.93 45.93 0 0 0-.79 4.24c-.13.78-.19 1.58-.18 2.37 0 .44.16 1 .55 1.08.51.16 1.06.16 1.57 0a5.27 5.27 0 0 0 2.27-2c-.38.26-.75.53-1.11.81-.3.26-.69.42-1.09.44-.33 0-.93-.15-1.24-1.13a4.1 4.1 0 0 1 0-2.5c.59-1.84 1.12-3.7 1.72-5.5.21-.68.37-1.39.54-2.08.25-1.22.61-2.41 1.07-3.57.47-1.08.9-2.21 1.33-3.29L94 6.09c.3-.75.59-1.49.85-2.26a.53.53 0 0 0 0-.27s0-.06-.27-.12a2 2 0 0 0-.36 0h-.11l-.85.06c-.45 0-.89.08-1.34.1l-4 .09c-1.46 0-2.92.06-4.38.11-.74 0-1.47.07-2.2.12l-.79.08h-.65c-.43 0-.86.08-1.29.08h-2.76L74.26 4h-.24c1.77 3.67 3.28 7.45 4.66 11l.64 1.61 1 2.61.44 1.21.34.93a2.55 2.55 0 0 1-.11 2l-.54 1.09a3 3 0 0 1-1.34 1.34 1.56 1.56 0 0 1-2.36-.58 5.71 5.71 0 0 1-.3-.54c-.1-.2-.2-.39-.34-.56a.23.23 0 0 0-.11-.01Zm25-22.6c.8-.14.86-.16 1.07.44.61 1.7 1.17 3.41 1.75 5.12l1 2.89 1.14 3.48a16.57 16.57 0 0 1 .29.88.58.58 0 0 0 .63.25c.47-.05.93-.12 1.39-.14a6 6 0 0 1 1.12.06c.32 0 .67.11.71.51.04.4-.51.76-.9.8-.55.06-1.09.11-1.64.19-.18.04-.35.1-.52.18.06.81.35 1.6.84 2.25.12.17.53.22.79.21.26-.01.8-.19 1.2-.22.34-.03.68 0 1 .12a.66.66 0 0 1 .3.55c0 .12-.22.33-.38.37-.4.1-.8.15-1.2.17h-1.06c.03.61.2 1.2.5 1.74.27.74.56 1.46.78 2.21.35 1.2.64 2.42 1 3.63.06.22.1.45.14.68 0 .37 0 .71-.41.86a.75.75 0 0 1-1-.39c-.19-.32-.4-.64-.56-1a32.22 32.22 0 0 1-2.51-6.5 4 4 0 0 0-.16-.49c0-.11-.1-.21-.16-.34a2.94 2.94 0 0 0-.51-.05c-1 .05-2 .1-3 .17l-2.26.17a.68.68 0 0 0-.63.51C98.77 23 97.88 25.2 97 27.39a1.82 1.82 0 0 1-1 1.22.81.81 0 0 1-.22-1l1.76-5.77c.12-.4.21-.81.35-1.32-.57 0-1 0-1.43-.08-.4-.03-.8-.13-1.17-.27a.53.53 0 0 1 0-1c.26-.12.54-.18.83-.19h1.66a.74.74 0 0 0 .88-.64c.11-.48.25-.95.41-1.52-1-.14-2-.28-3-.4-.3 0-.58-.02-.87-.06a.47.47 0 0 1-.31-.33.65.65 0 0 1 .24-.49 68.08 68.08 0 0 1 4.07-.51c.44 0 .59-.3.69-.66.25-1 .53-1.91.75-2.87.34-1.54.65-3.08.93-4.62.05-.4.02-.81-.06-1.21-.18-1.08-.4-2.17-.58-3.25-.03-.3-.03-.61 0-.92m-.76 17.5c1.82.45 3.49-.06 5.16 0 .15 0 .29-.14.46-.22l-.5-1.71a.66.66 0 0 0-.83-.53c-1.12.12-2.25.12-3.38.21a.67.67 0 0 0-.51.33c-.17.58-.26 1.18-.4 1.88m2.88-9.37h-.27l-1.46 5.39c1.09-.02 2.18-.15 3.24-.38-.67-1.69-.85-3.43-1.51-5"/>
  <path fill="#000" d="M110.13 29.24a1.22 1.22 0 0 1-1-.65v-.09c-.2-.32-.38-.65-.54-1l-.56-1.23A24.1 24.1 0 0 1 106 21c0-.12-.08-.24-.12-.36l-.07-.16h-.18c-1 0-2 .11-3 .18-.39 0-.78 0-1.16.09l-1.1.08c-.1 0-.17 0-.26.23l-.83 2.08-1.77 4.47A2.25 2.25 0 0 1 96.16 29l-.23.09-.2-.16a1.27 1.27 0 0 1-.36-1.43l1.75-5.76.22-.78c-.34 0-.63 0-.93-.07a4.75 4.75 0 0 1-1.29-.3 1 1 0 0 1-.58-.85 1 1 0 0 1 .54-.91 2.3 2.3 0 0 1 1-.23c.57-.03 1.13-.03 1.7 0 .3 0 .37-.07.42-.31a16 16 0 0 1 .27-1l-.31-.05-2.16-.32c-.3 0-.6-.02-.91-.06a.88.88 0 0 1-.66-.77 1 1 0 0 1 .5-.88A4 4 0 0 1 96 15h.22c1-.12 2-.25 3-.34.16 0 .22 0 .3-.33l.21-.78c.19-.69.38-1.38.54-2.08.36-1.63.67-3.14.93-4.6.03-.33.02-.67-.06-1l-.29-1.63-.29-1.65a3.56 3.56 0 0 1 0-.73v-.73l.36-.06c.22-.04.44-.07.67-.09.6 0 .77.45.89.81.47 1.3.9 2.6 1.34 3.9l.41 1.23c.33 1 .65 1.92 1 2.89l1.13 3.48.22.7c.06.21 0 .14.17.14l.52-.06c.32 0 .65-.07 1-.08.4-.04.8-.04 1.19 0a1.06 1.06 0 0 1 1.09.91.87.87 0 0 1-.23.66c-.27.33-.64.55-1.06.62H109c-.48.05-1 .1-1.45.17h-.12c.12.63.38 1.22.75 1.73h.34c.2-.01.4-.05.6-.1a2.94 2.94 0 0 1 1.85.03 1.09 1.09 0 0 1 .58.94 1 1 0 0 1-.72.81c-.42.1-.84.17-1.27.19h-.62c.06.25.15.48.26.71.06.15.13.29.18.44l.22.58a29.45 29.45 0 0 1 1.3 4.39l.23.91c.07.24.12.48.15.73a1.1 1.1 0 0 1-.69 1.33c-.14.1-.3.17-.46.2Zm-4.56-9.69h.41l.38.05.17.33c0 .09.09.18.12.26.08.18.14.38.19.57a22.92 22.92 0 0 0 1.91 5.15l.57 1.25c.14.3.3.57.47.84l.06.09c.15.24.25.24.28.24h.14c.11 0 .17-.06.13-.4a4.23 4.23 0 0 0-.13-.62l-.27-.91c-.23-.9-.46-1.81-.72-2.7-.16-.54-.36-1.08-.55-1.6l-.22-.59c0-.13-.11-.26-.16-.38-.24-.47-.36-1-.35-1.53v-.42h1.44a6.3 6.3 0 0 0 1.13-.17v-.1a2.81 2.81 0 0 0-1.28.04c-.23.06-.46.1-.7.12h-.1a1.28 1.28 0 0 1-1.07-.41 4.62 4.62 0 0 1-.92-2.47v-.32l.3-.1.16-.07c.14-.07.3-.12.45-.14.49-.07 1-.12 1.48-.17h.17c.21-.05.4-.19.51-.37 0 0 0-.05-.32-.08-.35-.05-.7-.06-1.05-.05l-.91.09-.45.05a1 1 0 0 1-1.2-.79c-.05-.2-.1-.39-.17-.58-.4-1.23-.77-2.39-1.16-3.54-.31-1-.63-1.93-1-2.89L103 6a177.35 177.35 0 0 0-1.45-4.15.34.34 0 0 1-.12.05c-.02.16-.02.31 0 .47.08.55.18 1.1.28 1.65l.29 1.62c.08.45.08.91 0 1.36-.26 1.47-.57 3-.94 4.63-.15.71-.35 1.42-.54 2.12l-.21.77a1.15 1.15 0 0 1-1.07 1c-1 .09-2 .22-3 .34h-.21c-.26.03-.52.08-.77.17.26.04.52.06.78.05l2.22.3 1.3.17-.28 1c-.09.35-.18.66-.25 1a1.16 1.16 0 0 1-1.23 1h-1.72c-.22 0-.44.05-.65.14a.11.11 0 0 0-.08.1.1.1 0 0 0 .07.07 6.22 6.22 0 0 0 1.86.3h1.07l-.26 1c-.08.31-.15.58-.24.86l-1.75 5.77a.84.84 0 0 0 0 .23c.2-.22.36-.49.45-.78.58-1.49 1.18-3 1.78-4.48l.83-2.07a1.1 1.1 0 0 1 1-.79l1.08-.08 1.18-.09 3-.17.15-.01Zm-3.72.05c-.6 0-1.2-.06-1.78-.2l-.41-.1.19-1c.08-.45.18-.9.3-1.35a1.1 1.1 0 0 1 .9-.65l1.43-.08c.63 0 1.29-.06 1.93-.12a1.06 1.06 0 0 1 1.3.83l.35 1.2.25.86-.32.17-.12.07a.91.91 0 0 1-.52.2h-.51c-.47 0-.93 0-1.43.07-.5.07-1.03.1-1.56.1Zm-1.17-1c.88.1 1.78.1 2.66 0a15.5 15.5 0 0 1 1.93-.07v-.17l-.35-1.2c-.12-.4-.16-.23-.37-.21-.66.07-1.33.1-2 .13-.46 0-.93 0-1.4.08a.36.36 0 0 0-.15.08c-.09.33-.16.74-.25 1.2l-.07.16Zm0-3.13 1.71-6.32h.9l.11.28c.33.84.6 1.7.79 2.59.19.83.43 1.64.72 2.44l.18.45-.46.13c-.75.2-1.52.3-2.29.32-.33 0-.67 0-1 .07l-.66.04Zm2.32-4.83-1.06 3.87h.45c.55 0 1.1-.06 1.63-.16a21.6 21.6 0 0 1-.59-2.09c-.18-.58-.31-1.11-.43-1.62Zm44.16 6.41a3.09 3.09 0 0 1 2.29-1.31c.83-.15 1.66-.27 2.5-.36a.74.74 0 0 0 .72-.63l1.06-4.67c.23-1 .46-2 .75-3a2.53 2.53 0 0 0-.18-2l-1.14-2.16c-.27-.52-.25-.75.17-1a.81.81 0 0 1 1.17.08c.13.16.23.34.3.53.37 1 .72 2.08 1.08 3.13l1.33 3.87 1.07 3.14c.13.38.25.78.4 1.15.36.89.38.9 1.36.86.72 0 1.45-.08 2.24-.13.14.16.26.33.38.51.46.8.15 1.38-.76 1.4h-1.05c-.35 0-.72.14-1.16.23l.56 2.11c.08.32.31.39.59.39h1.58c.24 0 .52.05.49.34a.74.74 0 0 1-.45.41c-.44.14-.9.25-1.35.34a.5.5 0 0 0-.4.72c.28.76.6 1.51.9 2.26.57 1.46 1.15 2.92 1.7 4.39.08.3.12.62.11.94a.69.69 0 0 1-.54.79.72.72 0 0 1-.88-.38c-.26-.49-.48-1-.65-1.53-.25-.74-.41-1.51-.66-2.25-.5-1.52-1-3-1.57-4.57h-3.14c-1.01 0-2.32.13-3.48.18a.63.63 0 0 0-.65.57c-.33 1.6-.68 3.18-1 4.77-.14.74-.32 1.47-.55 2.19a2.7 2.7 0 0 1-.77 1 .59.59 0 0 1-1-.42 2.3 2.3 0 0 1 .12-.85l1.88-6.17c.09-.3.16-.6.24-.93-1-.43-2 .07-3-.36.19-.63.51-1 1.13-.93.62.07 1.11 0 1.67 0a.72.72 0 0 0 .83-.59l.48-1.8a2.33 2.33 0 0 0-.57-.13H148a4.5 4.5 0 0 1-.85-.2m11.34 2.49c-.27-.84-.5-1.49-.67-2.15a.68.68 0 0 0-.54-.57.67.67 0 0 0-.28.01c-1 .07-1.91.11-2.86.21a1 1 0 0 0-.64.36c-.29.4-.54.82-.75 1.26-.14.33-.26.66-.36 1l6.1-.13m-1.29-4.74a7.01 7.01 0 0 0-.5-2.29c-.47-1.66-.51-1.72-1-2.12l-1.42 4.73c1.06-.19 2 .05 2.9-.32"/>
  <path fill="#000" d="M149.11 30a1.05 1.05 0 0 1-1-.95 2.5 2.5 0 0 1 .13-1l1.15-3.79.74-2.39.12-.5a4 4 0 0 0-1 0h-.42c-.43.02-.85-.06-1.24-.23l-.35-.16.11-.36a1.51 1.51 0 0 1 1.51-1.25h1.73c.26 0 .33-.05.38-.26l.32-1.2v-.18H148a2.27 2.27 0 0 1-.63-.12l-.33-.1-.61-.15.36-.52a3.48 3.48 0 0 1 2.57-1.49 39.8 39.8 0 0 1 2.53-.37c.25 0 .3-.1.34-.29l.19-.82.88-3.85v-.11c.22-.94.45-1.92.74-2.87a2.1 2.1 0 0 0-.16-1.69 31.4 31.4 0 0 1-.52-1c-.17-.34-.4-.79-.61-1.17-.21-.38-.45-1.1.3-1.6a1.27 1.27 0 0 1 1.75.19c.16.2.3.42.38.66.36 1 .71 2 1.06 3.05l2.53 7.42c.09.27.18.54.29.81.24.6.24.6.53.6h.4l1.55-.08.92-.06.24.31.3.42a1.4 1.4 0 0 1 .14 1.44 1.38 1.38 0 0 1-1.26.63h-.45a5.18 5.18 0 0 0-.56 0 7.2 7.2 0 0 0-.67.12v.17l.4 1.5s.05.06.17.06h1.57c.28 0 .56.09.77.27a.69.69 0 0 1 .16.57 1.1 1.1 0 0 1-.74.77c-.33.1-.66.2-1 .26l-.39.08a.37.37 0 0 0-.11.05v.1c.18.49.37 1 .57 1.46l.66 1.68c.46 1.16.92 2.33 1.36 3.5.1.28.13.57.13.87v.21a1.12 1.12 0 0 1-.86 1.23 1.15 1.15 0 0 1-1.39-.61 11.91 11.91 0 0 1-1.01-2.75c-.1-.4-.2-.74-.32-1.1l-1.1-3.2-.37-1.07H156c-.71 0-1.43.07-2.15.11l-1.32.07c-.15 0-.2 0-.24.23a404.5 404.5 0 0 0-1 4.77l-.09.4a13.9 13.9 0 0 1-.48 1.84c-.2.47-.5.88-.89 1.21a1 1 0 0 1-.72.23Zm.55-9.58c.43-.02.87.06 1.27.22l.34.15-.16.66-.17.64-.73 2.4-1.15 3.78c-.08.21-.11.44-.1.67 0 .18.15.22.25.13.28-.22.5-.51.63-.84.2-.57.35-1.14.46-1.73l.09-.4c.35-1.59.7-3.18 1-4.76a1.05 1.05 0 0 1 1.06-.92l1.31-.08c.73 0 1.45-.08 2.18-.1h3.47l.57 1.65 1.1 3.22c.12.38.23.76.33 1.15a11.07 11.07 0 0 0 .94 2.56c.1.2.23.2.27.2h.11c.16 0 .24-.11.23-.34v-.22c0-.2-.02-.4-.08-.6-.44-1.17-.89-2.33-1.35-3.49l-.66-1.67-.59-1.49a1 1 0 0 1 0-.81.99.99 0 0 1 .69-.49l.4-.09.58-.13h-1.15a.93.93 0 0 1-1-.72c-.12-.49-.25-1-.4-1.49l-.28-1.06.85-.18c.27-.07.54-.12.82-.16h1.07a.65.65 0 0 0 .53-.18.71.71 0 0 0-.13-.56 2.9 2.9 0 0 0-.2-.28h-.45l-1.58.09h-.43c-.88 0-1-.4-1.35-1.14-.11-.28-.21-.57-.3-.86l-2.53-7.42-1.06-3a1.3 1.3 0 0 0-.22-.4.32.32 0 0 0-.27-.15.61.61 0 0 0-.32.12c-.13.09-.15.14-.15.14.02.11.07.22.13.32l.62 1.18.52 1a3 3 0 0 1 .22 2.35 46.7 46.7 0 0 0-.73 2.82v.11l-.87 3.84-.19.83a1.16 1.16 0 0 1-1.1 1c-1 .12-1.75.23-2.47.36a3 3 0 0 0-1.58.64h3.37c.16 0 .31.03.46.08l.21.06.44.11-.28 1-.32 1.19a1.14 1.14 0 0 1-1.2.92h-1.73a.6.6 0 0 0-.52.22c.28.02.57.02.85 0l.43-.05Zm2.12-.29.21-.59c0-.13.07-.25.11-.36a6.03 6.03 0 0 1 1.05-2.04c.24-.29.58-.48.95-.53.59-.06 1.19-.1 1.78-.14l1.09-.07a1.08 1.08 0 0 1 1.28.89c.12.44.26.88.42 1.37l.42 1.32-7.31.15Zm5.35-2.86H157l-1.1.08c-.59 0-1.17.07-1.75.13a.67.67 0 0 0-.34.19 8.19 8.19 0 0 0-.84 1.56l4.89-.1-.06-.19c-.17-.52-.31-1-.43-1.43-.02-.24-.08-.25-.24-.25v.01Zm-3.44-1.58 1.81-6.06.51.43c.58.49.65.69 1.12 2.34l.16.5c.24.62.36 1.27.36 1.93v.28l-.26.11c-.58.2-1.2.28-1.81.26-.4 0-.79.02-1.18.08l-.71.13Zm2.21-4.34-1 3.27h.63c.41 0 .82-.03 1.22-.12a5.4 5.4 0 0 0-.32-1.32c0-.18-.11-.35-.16-.53-.17-.65-.27-1.06-.37-1.31v.01ZM33.24 20.23c.06.34.14.67.24 1 .51 1.55 1 3.08 1.55 4.63.21.63.41 1.27.59 1.91.18.64.14.83-.62 1h-.36c-.11-.26-.25-.54-.36-.83l-2.47-6.52a.81.81 0 0 1-.08-.25c-.05-1-.62-1.27-1.53-1.32a26.88 26.88 0 0 0-5.44.17c-.09.38-.2.74-.26 1.11a14 14 0 0 1-1.5 4.51c-.49.89-.95 1.8-1.41 2.71a.8.8 0 0 1-1.18.43c-.1-.44-.05-.9.11-1.33.64-2.09 1.29-4.17 1.92-6.26.09-.29.15-.59.26-1l-1.91.25a2.6 2.6 0 0 1-.78.05.7.7 0 0 1-.4-.39.5.5 0 0 1 .16-.44c.31-.18.65-.3 1-.38a13.7 13.7 0 0 1 1.57 0 .8.8 0 0 0 .89-.66l.48-1.76c-1.1.1-2.2.02-3.27-.23-.18-.55.05-.81.53-.9.83-.16 1.65-.32 2.48-.45.83-.13.92-.16 1.11-1 .58-2.52 1.13-5.05 1.72-7.57.12-.52.32-1 .48-1.52-.26-.81-.5-1.64-.8-2.45a1.49 1.49 0 0 1 .34-1.62c.39 0 .52.3.65.58.45 1 1 2 1.32 3 .65 1.86 1.22 3.76 1.82 5.64.37 1.16.72 2.33 1.1 3.49.29.86.32.86 1.25.84.33-.02.67-.02 1 0a.78.78 0 0 1 .74.87.66.66 0 0 1-.36.41c-.23.03-.46.03-.69 0L32 16.1c.15.84.4 1.66.73 2.45l1.32-.08c.57 0 1 .26 1 .71a1 1 0 0 1-1 .89h-.68l-.15.16M27.57 7.82a9.67 9.67 0 0 0-.82 3.48 17.43 17.43 0 0 0-.75 3.52 14 14 0 0 0 3.76-.22c-.73-2.27-1.05-4.58-2.23-6.78m3.51 11-.59-1.86a.79.79 0 0 0-.9-.62c-1.16.09-2.32.13-3.48.23a.78.78 0 0 0-.58.29 3.7 3.7 0 0 0-.43 2.14c2 .1 4.01.02 6-.23"/>
  <path fill="#000" d="M20.82 29.33c-.22 0-.43-.06-.63-.15L20 29.1l-.06-.19a2.65 2.65 0 0 1 .12-1.59l.32-1.06L22 21.07c0-.13.07-.25.1-.39l-1.28.16h-.16c-.25.04-.5.04-.75 0a1.08 1.08 0 0 1-.73-.66.88.88 0 0 1 .37-1 3.84 3.84 0 0 1 2.19-.47h.66c.32 0 .39-.1.45-.32l.32-1.19h-.77c-.7.05-1.42-.02-2.1-.2l-.21-.07-.09-.23a1.12 1.12 0 0 1 0-1 1.1 1.1 0 0 1 .82-.51l.57-.11c.64-.12 1.28-.24 1.93-.34.65-.1.62-.1.74-.64l.82-3.59.9-4c.09-.38.22-.75.34-1.1 0-.11.08-.22.11-.32l-.19-.62c-.18-.56-.35-1.12-.56-1.67A1.94 1.94 0 0 1 26 .79l.13-.16h.2a1.17 1.17 0 0 1 1.05.85l.38.84c.34.72.68 1.47 1 2.23.48 1.36.91 2.75 1.33 4.1l.9 2.84.7 2.2c.05.18.12.36.21.53h.7a8.3 8.3 0 0 1 1 0 1.29 1.29 0 0 1 .9.47 1.17 1.17 0 0 1 .24.9 1 1 0 0 1-.64.76c-.2.05-.4.07-.6.05h-.15c-.28 0-.51 0-.75.07.1.42.23.82.39 1.22 0 .13.09.25.13.38l1.1-.06a1.24 1.24 0 0 1 1.36 1.12 1.18 1.18 0 0 1-.34.89 1.48 1.48 0 0 1-1.08.47h-.32c.03.2.08.38.14.57l.82 2.42a95.86 95.86 0 0 1 1.33 4.15 1.3 1.3 0 0 1 0 1.06c-.18.29-.52.38-1 .47h-.72l-.23-.54-.26-.59-1.95-5.17-.52-1.36a1.2 1.2 0 0 1-.11-.38c0-.57-.2-.85-1.11-.9a27.88 27.88 0 0 0-5.06.13v.07c-.07.23-.13.47-.17.71-.26 1.63-.8 3.2-1.6 4.65-.43.79-.84 1.6-1.25 2.4l-.15.3a1.22 1.22 0 0 1-1.18.85Zm-.08-.89c.1 0 .19.14.41-.29l.15-.29c.41-.82.82-1.63 1.27-2.43a13.64 13.64 0 0 0 1.5-4.37c.05-.27.1-.54.18-.8l.16-.63h.29c.28-.05.57-.08.87-.12h-.88l-.06-.35c-.1-.85.09-1.7.51-2.45a1.2 1.2 0 0 1 .94-.54C26.71 16 27.35 16 28 16l1.57-.1h.14a1.2 1.2 0 0 1 1.22.93l.39 1.24.36 1.12-.53.06-1.74.17h.83a1.78 1.78 0 0 1 2 1.74l.06.11.51 1.36 1.95 5.17.23.53.36-.09a37.72 37.72 0 0 0-.66-2.24l-.74-2.2-.82-2.43a6.15 6.15 0 0 1-.19-.77l-.11-.48.37-.43.4-.05h.54a.6.6 0 0 0 .44-.19c.07-.06.1-.15.11-.24 0-.22-.27-.29-.49-.29l-1.71.1-.11-.33-.31-.69a7.74 7.74 0 0 1-.51-1.87v-.44l.82-.09.81-.08h.58a.27.27 0 0 0 .07-.08.3.3 0 0 0-.07-.21.38.38 0 0 0-.28-.14h-1.35c-.91 0-1.07-.37-1.33-1.15-.26-.78-.47-1.47-.7-2.21l-.89-2.84c-.42-1.34-.86-2.72-1.33-4.07-.25-.72-.59-1.45-.91-2.14l-.39-.86a1.48 1.48 0 0 0-.11-.22 1 1 0 0 0-.07.93c.21.57.39 1.15.57 1.72l.28.88v.14l-.16.47a9.1 9.1 0 0 0-.32 1l-.9 4-.81 3.6c-.23 1-.5 1.16-1.47 1.3-.63.1-1.27.22-1.9.34l-.56.11a.47.47 0 0 0-.24.09c.72.15 1.45.2 2.18.15h1.27L24 17.5l-.32 1.15a1.21 1.21 0 0 1-1.29 1h-.67a6.63 6.63 0 0 0-.86 0c-.3.06-.6.18-.86.35l.07.06h.6L22 19.8l1.22-.16-.25 1-.17.66-1.59 5.19-.33 1.07c-.1.28-.14.58-.14.88Zm4.73-9.84a35 35 0 0 0 5-.2v-.11l-.4-1.24c-.08-.26-.18-.31-.38-.31h-.07l-1.59.1c-.63 0-1.26.07-1.88.12a.6.6 0 0 0-.25.09c-.26.48-.4 1-.43 1.55Zm1.74-3.31h-1.6v-.4c0-.82.13-1.64.39-2.42.13-.4.23-.82.31-1.24 0-.27.08-.54.11-.81a7 7 0 0 1 .75-2.81l.39-.69.38.7a20 20 0 0 1 1.65 4.66c.19.72.39 1.46.62 2.18l.15.47-.47.1c-.88.18-1.78.27-2.68.26Zm-.72-.89c.92.04 1.84 0 2.75-.14-.18-.59-.33-1.18-.49-1.76a23.5 23.5 0 0 0-1.16-3.62 9.09 9.09 0 0 0-.29 1.64c0 .29-.07.57-.11.85-.08.46-.21.91-.33 1.35-.18.54-.3 1.1-.37 1.68ZM61 2.13a1.45 1.45 0 0 1 1 .69c.44.63.83 1.3 1.16 2 .84 2 1.6 3.93 2.43 5.88.4.94.88 1.84 1.3 2.76a.62.62 0 0 0 .76.41 8.7 8.7 0 0 1 1.13-.08c.32 0 .63.05.94.13.35.08.6.27.55.67a.69.69 0 0 1-.71.63c-.41 0-.82 0-1.22.09-.2.05-.4.12-.6.21.25.8.45 1.58.73 2.33.06.15.43.24.66.25.41 0 .81-.11 1.21-.09.68.06 1 .36 1 .9a1 1 0 0 1-1 1l-.9.08c0 .19.03.38.07.56.75 2.15 1.52 4.28 2.25 6.43a1.62 1.62 0 0 1 .06 1.51 3.64 3.64 0 0 1-.41-.49c-.96-1.8-1.72-3.7-2.25-5.66-.2-.6-.4-1.21-.65-1.8-.25-.59-.44-.73-1-.58-.89.14-1.8.1-2.67-.12a6.2 6.2 0 0 0-1-.07c-1.13 0-2.26.11-3.39.16-.73 0-.81 0-.93.76-.37 2.31-1.34 4.31-1.92 6.47-.11.33-.29.63-.51.9a.49.49 0 0 1-.44.16.65.65 0 0 1-.34-.44c0-.26.06-.51.15-.75l1.8-6.37a2 2 0 0 0 0-.44c-.74-.1-1.49-.1-2.23 0-.18 0-.38.13-.51.07a.84.84 0 0 1-.42-.47c0-.12.13-.37.27-.44.21-.08.44-.13.67-.13.6-.07 1.22-.13 1.83-.18a1.11 1.11 0 0 0 1.13-1c.08-.39.2-.77.32-1.21H57.5c-.37 0-.75-.04-1.11-.13a4 4 0 0 1-.85-.67c.45-.15.72-.25 1-.31 1-.24 1.93-.46 2.88-.73.23-.09.42-.25.54-.46.12-.24.2-.49.25-.75.52-2.05 1-4.11 1.55-6.17.16-.62.28-1.25.34-1.88a2.48 2.48 0 0 0-.27-1c-.28-.73-.59-1.45-.86-2.18a1.56 1.56 0 0 1 0-.47m6.23 16.18c-.28-.78-.52-1.43-.73-2.08a.76.76 0 0 0-.93-.59c-1.43.23-2.87.45-4.3.69a.73.73 0 0 0-.46.34c-.24.61-.44 1.24-.7 2 2.38.02 4.76-.1 7.12-.38M65.54 14l-2.11-6.73a2.26 2.26 0 0 0-.13-.33c-.19.17-.32.4-.38.64-.1.63-.12 1.27-.26 1.9-.28 1.3-.62 2.59-.93 3.89-.1.41-.18.82-.3 1.39l4.11-.76Z"/>
  <path fill="#000" d="m71.89 29.29-.41-.47-.16-.17a2.27 2.27 0 0 1-.3-.38 27.36 27.36 0 0 1-2.25-5.59v-.15c-.19-.58-.39-1.19-.64-1.77-.15-.36-.21-.36-.25-.36a.8.8 0 0 0-.23 0c-.73.14-1.49.14-2.22 0l-.62-.1c-.32 0-.56-.06-.8-.06h-.09c-.67 0-1.33.06-2 .09l-1.39.07a3.23 3.23 0 0 0-.47 0s0 .09-.06.35c-.27 1.36-.65 2.7-1.15 4-.28.82-.58 1.66-.8 2.5-.13.36-.32.7-.57 1a1 1 0 0 1-.73.35h-.1l-.15-.05a1.1 1.1 0 0 1-.6-.8c-.01-.25.02-.5.1-.75l1.82-6.45a8.55 8.55 0 0 0-1.59 0h-.28a.88.88 0 0 1-.62 0c-.3-.16-.53-.42-.64-.74a.94.94 0 0 1 .48-.95 2 2 0 0 1 .72-.17H56l1.83-.17a.7.7 0 0 0 .74-.64l.17-.68h-1.36c-.38 0-.76-.04-1.13-.15-.25-.1-.48-.26-.66-.46l-.32-.28-.62-.51 1.17-.38.61-.19 1-.24c.62-.15 1.25-.3 1.87-.48a.67.67 0 0 0 .29-.28c.08-.14.13-.3.15-.45l.26-1.15c.43-1.7.87-3.4 1.28-5.1.16-.6.27-1.2.33-1.82-.02-.2-.07-.4-.16-.59l-.08-.19c-.13-.35-.27-.69-.41-1-.14-.31-.31-.76-.45-1.14a1 1 0 0 1 0-.5v-.63l.48.08a1.88 1.88 0 0 1 1.31.88c.45.67.85 1.36 1.2 2.09.46 1.07.9 2.15 1.33 3.23.36.89.72 1.78 1.1 2.66.21.52.46 1 .71 1.53.25.53.4.82.58 1.23.1.21.17.17.31.15a4.8 4.8 0 0 1 2.6.18 1 1 0 0 1 .51 1.02 1.14 1.14 0 0 1-1.12 1h-.41l-.79.07h-.11l.06.23c.16.56.32 1.08.51 1.59l.3.06c.17.02.34.02.51 0 .24-.02.48-.02.72 0 1.18.09 1.37.87 1.37 1.32a1.4 1.4 0 0 1-1.37 1.46l-.47.05.87 2.47c.46 1.32.92 2.63 1.37 4l.06.15a1.84 1.84 0 0 1 0 1.71l-.25.47Zm-14.62-9.6c.36 0 .72.03 1.08.1l.35.07v.53c.02.13.02.25 0 .38l-1.85 6.52c-.05.15-.08.3-.09.46a2 2 0 0 0 .41-.7c.24-.87.54-1.73.83-2.56a24 24 0 0 0 1.1-3.83c.17-1 .49-1.08 1.34-1.12l1.39-.07 2-.09H64c.28 0 .55.03.83.06l.73.11a4.8 4.8 0 0 0 1.85 0 1.15 1.15 0 0 1 1.52.83c.25.6.47 1.22.66 1.84v.16c.42 1.44.94 2.84 1.54 4.21l-1.19-3.41-.87-2.47a1.9 1.9 0 0 1-.07-.46v-.65l.74-.06.59-.06c.28 0 .6-.15.6-.57 0-.25 0-.43-.57-.47h-.55a5.3 5.3 0 0 1-.56.05h-.09c-.08 0-.86 0-1-.53s-.38-1.14-.56-1.74l-.3-1 .39-.14.23-.09c.15-.07.3-.12.47-.15.28 0 .56-.02.84-.06h.39c.27 0 .3-.12.31-.25.01-.13 0-.13-.2-.18a4.15 4.15 0 0 0-1.92-.04 1.07 1.07 0 0 1-1.22-.66c-.18-.41-.38-.8-.57-1.2-.19-.4-.51-1-.73-1.57l-.57-1.37 1.49 4.75-5.24 1 .24-1.17.2-.87.32-1.34c.21-.84.42-1.69.61-2.55.07-.35.11-.72.15-1.1l.09-.76c.05-.33.2-.63.42-.87l.31-.33-.53-1.25c-.3-.67-.67-1.3-1.09-1.91L61.58 3l.23.59.42 1.06.07.17c.15.31.23.65.22 1-.06.68-.18 1.34-.35 2-.41 1.7-.85 3.4-1.28 5.1l-.3 1.21c-.05.25-.14.5-.26.73-.19.3-.47.53-.81.66-.63.17-1.26.33-1.9.48l-1 .24-.23.07.13.07c.28.08.58.12.87.1h2.48l-.25 1c-.08.25-.15.5-.19.77a1.56 1.56 0 0 1-1.54 1.34l-1.81.17h-.13a.92.92 0 0 0-.38.07l.09.08h.44c.43-.19.8-.22 1.17-.22Zm6-11.5v.13c-.03.4-.09.8-.17 1.2-.19.86-.4 1.72-.61 2.57l-.32 1.34-.16.73 3-.55-1.74-5.42Zm-3.81 10.92.41-1.2c.17-.52.33-1 .51-1.43a1.11 1.11 0 0 1 .79-.6c1.42-.25 2.86-.47 4.29-.69h.27a1.16 1.16 0 0 1 1.15.9l.49 1.39.42 1.19-.54.08c-2.38.27-4.77.4-7.17.38l-.62-.02Zm6.27-3.06h-.12c-1.44.22-2.87.44-4.29.69a.32.32 0 0 0-.14.08c-.16.42-.31.86-.48 1.36 1.97 0 3.95-.1 5.91-.31l-.06-.16-.49-1.42c-.06-.22-.21-.24-.33-.24ZM4.24 2.26h3.8c.78-.02 1.56-.08 2.33-.2A30.3 30.3 0 0 1 16 1.74c.22.02.43.06.64.11-.19.39-.32.72-.5 1A40.35 40.35 0 0 1 13 7.66c-.66.85-1.31.83-1.95-.12a.8.8 0 0 1-.1-.25c.68-1.22 1.91-2.14 2.57-3.68-1.14.09-2.12.13-3.09.24-1.29.15-2.58.35-3.87.54-.62.09-.72.21-.78.82a5.2 5.2 0 0 0 0 .79c.06 1.82.1 3.65.2 5.48.1 1.83.29 3.76.45 5.64.21 2.43.28 4.88.2 7.32-.06.96-.17 1.9-.35 2.85-.27 1.61-1 2.18-2.65 2.09a3.92 3.92 0 0 1-2.85-1.5c-.52-.62-.45-1.3.25-2 .17.32.31.61.47.89.16.28.5.84.78 1.24a.71.71 0 0 0 .94.18 2.26 2.26 0 0 0 1.45-2.07v-4.8c0-.9.15-1.8.18-2.7v-7.47C4.65 9.09 4.4 7 4.21 4.93c-.07-.78-.06-1.57-.07-2.35a.86.86 0 0 1 .1-.32Z"/>
  <path fill="#000" d="M3.93 29.86h-.32a4.35 4.35 0 0 1-3.16-1.67 1.76 1.76 0 0 1 .26-2.6l.42-.43.44.83.31.58c.27.44.5.83.76 1.21.06.08.1.09.15.09a1.8 1.8 0 0 0 1.44-1.73v-4.78c0-.48 0-.95.1-1.42s.07-.85.08-1.28v-7.53c-.1-1.16-.22-2.31-.34-3.47C4 6.82 3.85 5.89 3.77 5c-.06-.64-.06-1.28-.07-1.9v-.52a1 1 0 0 1 .12-.45l.1-.3h4.1c.76 0 1.53-.08 2.28-.2 1.51-.23 3.04-.34 4.57-.32H16c.14 0 .29.03.43.06l.84.15-.41.88c-.12.26-.23.49-.35.71-.43.74-.86 1.47-1.32 2.18l-.07.11A45.6 45.6 0 0 1 13.37 8c-.88 1.09-1.83 1-2.67-.18a1.38 1.38 0 0 1-.1-.22l-.12-.31.1-.18c.33-.55.7-1.06 1.13-1.53.4-.46.76-.94 1.08-1.45h-.3c-.7 0-1.34.09-2 .17-1.26.14-2.55.34-3.79.52-.34 0-.4.08-.42.1-.03.11-.05.22-.06.34v2.21c0 1.33.09 2.66.16 4 .1 1.64.24 3.3.38 4.9l.07.73c.21 2.45.28 4.91.19 7.37a21.8 21.8 0 0 1-.35 2.91 2.52 2.52 0 0 1-2.74 2.48Zm-1.4-1.14c.35.16.73.25 1.12.28 1.4.06 2-.34 2.2-1.73.17-.93.29-1.86.34-2.8A61 61 0 0 0 6 17.19l-.07-.73c-.14-1.61-.28-3.28-.38-4.92-.08-1.34-.12-2.68-.17-4L5.34 6a6 6 0 0 1 0-.85c.1-.77.36-1.05 1.17-1.15 1.32-.19 2.61-.38 3.89-.53.66-.08 1.32-.12 2-.17l1.08-.08.73-.05-.3.66a9 9 0 0 1-1.56 2.33c-.33.38-.64.79-.92 1.21.46.69.74.69 1.22.07.62-.8 1.19-1.67 1.74-2.51l.07-.11c.45-.68.87-1.41 1.28-2.12l.25-.5h-1.14c-1.48-.02-2.96.09-4.43.32-.8.13-1.59.2-2.39.21H4.58v.36c0 .6 0 1.23.06 1.83l.28 2.76c.12 1.16.25 2.32.34 3.48.03.67.03 1.33 0 2v5.47c0 .45 0 .89-.09 1.33-.09.44-.08.91-.09 1.37v4.78a2.69 2.69 0 0 1-1.73 2.48 2.05 2.05 0 0 1-.82.13Zm-1.53-2a.76.76 0 0 0 .16.9 4 4 0 0 0 1 .88 1.07 1.07 0 0 1-.2-.22c-.27-.39-.52-.81-.76-1.22l-.2-.34Zm137.93-9.83c-.14.32-.25.66-.34 1a24.02 24.02 0 0 1-2.19 6.49c-.55 1.09-1.06 2.19-1.62 3.28-.44.84-.75.95-1.89.69.08-.32.11-.65.22-1 .74-2.09 1.54-4.15 2.21-6.25.79-2.43 1.49-4.89 2.2-7.35.11-.32.11-.68 0-1l-3-6.5a29.12 29.12 0 0 0-2.58-3.92c-.39-.59-.47-.9-.13-1.21a1.13 1.13 0 0 1 1.48.22c.21.28.39.58.53.9.76 1.6 1.48 3.22 2.27 4.81a435 435 0 0 0 3.32 6.43c1.77 3.4 3.56 6.79 5.3 10.2.6 1.17 1.08 2.39 1.59 3.6a.84.84 0 0 1 0 .7c-.24.28-.57.07-.77-.12a4.4 4.4 0 0 1-.85-1c-.27-.48-.5-.98-.69-1.5a43.8 43.8 0 0 0-3.87-7.12c-.31-.48-.63-1-1-1.44h-.23"/>
  <path fill="#000" d="M133.73 29c-.31 0-.63-.06-.93-.14l-.43-.1.09-.42.06-.3c.04-.24.1-.48.18-.72l.8-2.22c.48-1.31 1-2.67 1.41-4 .71-2.22 1.37-4.5 2-6.7l.18-.64a1.2 1.2 0 0 0 0-.7c-.68-1.53-1.38-3.06-2.08-4.58l-.89-1.92a15.7 15.7 0 0 0-1.68-2.65c-.29-.4-.59-.8-.86-1.21-.27-.41-.77-1.15-.06-1.78a1.62 1.62 0 0 1 2.12.28c.23.31.42.65.58 1l.84 1.79c.47 1 .93 2 1.43 3 .85 1.72 1.74 3.42 2.63 5.12l.68 1.31 1.77 3.39c1.19 2.27 2.37 4.55 3.54 6.82.51 1 .94 2.06 1.37 3.07l.22.55a1.25 1.25 0 0 1-.08 1.16c-.34.39-.9.38-1.4-.09a5.11 5.11 0 0 1-.92-1.07 10.9 10.9 0 0 1-.72-1.55 44.58 44.58 0 0 0-3.84-7.06l-.62-.94c-.04.12-.08.24-.1.36a24.4 24.4 0 0 1-2.23 6.62L136.1 26c-.31.63-.61 1.27-.93 1.89-.32.62-.69 1.11-1.44 1.11Zm-.32-.91h.32c.24 0 .37 0 .66-.58l.92-1.87.7-1.41a23.75 23.75 0 0 0 2.15-6.37c.06-.27.14-.53.24-.79l.12-.31.1-.32h.78l.42.63.66 1a43.57 43.57 0 0 1 3.9 7.18c.19.5.41.98.67 1.44.21.33.47.63.77.89l.11.09v-.18l-.23-.55c-.41-1-.84-2-1.33-3a876.24 876.24 0 0 0-3.54-6.8L139 13.76l-.68-1.3c-.89-1.71-1.78-3.42-2.64-5.14-.5-1-1-2-1.44-3l-.83-1.79c-.14-.29-.3-.56-.49-.82a.77.77 0 0 0-.84-.15c-.08.07-.13.12.21.63.34.51.55.79.84 1.18.69.87 1.28 1.81 1.77 2.81l.88 1.91 2.09 4.59a2 2 0 0 1 .05 1.3l-.18.64c-.64 2.21-1.3 4.5-2 6.73a93.17 93.17 0 0 1-1.42 4l-.8 2.21a4.1 4.1 0 0 0-.11.49v.04ZM38.91.56c.57 1 1.09 1.92 1.63 2.84 1.19 2 2.38 4.07 3.6 6.08a27.36 27.36 0 0 1 3 5.71c.5 1.57 1.25 3.06 1.91 4.59l3.47 8c0 .08 0 .17.07.28a.54.54 0 0 1-.93-.11 19 19 0 0 1-1.28-2.17c-1-2-1.88-4.06-2.78-6.1-.37-.85-.65-1.74-1-2.62a6.78 6.78 0 0 0-1.43-2.57 5.85 5.85 0 0 0-.49-.41c-.1.2-.2.4-.27.61-.7 1.88-1.5 3.72-2.41 5.51-.49 1.1-.78 2.3-1.17 3.46-.39 1.16-.87 2.59-1.33 3.87a8.2 8.2 0 0 1-.6 1.08.46.46 0 0 1-.56.07.8.8 0 0 1-.33-.53c.01-.29.07-.57.18-.84.38-1.19.88-2.34 1.16-3.55a69.6 69.6 0 0 1 2.5-8c.3-.64.62-1.26 1-1.85.17-.31.36-.6.54-.9a1.3 1.3 0 0 0 0-1.45 49.37 49.37 0 0 1-2.51-5c-.45-1.13-1.14-2.16-1.7-3.24-.31-.62-.59-1.25-.87-1.89-.21-.48.11-.68.63-.91"/>
  <path fill="#000" d="M38.61 29.18a.88.88 0 0 1-.44-.12 1.16 1.16 0 0 1-.55-.89c0-.34.06-.68.19-1 .13-.41.28-.81.42-1.22.29-.75.53-1.52.73-2.3a70.78 70.78 0 0 1 2.52-8c.2-.5.43-.98.71-1.43l.27-.49.39-.66.16-.25a.91.91 0 0 0 0-1l-.4-.74a38.12 38.12 0 0 1-2.14-4.29 15.7 15.7 0 0 0-1-2 33.98 33.98 0 0 1-1.5-3.01c-.43-1 .42-1.37.83-1.55l.29-.23.71 1.23 1.12 2 .66 1.12c1 1.66 1.94 3.32 2.93 5L45 10a23.9 23.9 0 0 1 2.57 5.1c.38 1.12.82 2.2 1.33 3.27l.56 1.27c.72 1.68 1.45 3.35 2.18 5l1.29 3c.03.08.06.16.07.25l.09.35-.19.18c-.2.2-.47.32-.75.33a1 1 0 0 1-.85-.53l-.16-.25c-.42-.64-.8-1.31-1.15-2-.9-1.91-1.81-3.91-2.78-6.12-.33-.75-.59-1.54-.85-2.3l-.12-.35a6.16 6.16 0 0 0-1.33-2.41 35.13 35.13 0 0 1-1.72 4.13l-.67 1.44c-.3.73-.56 1.48-.78 2.24l-.37 1.18c-.44 1.3-.88 2.59-1.34 3.88-.1.24-.21.47-.35.68l-.17.3a.94.94 0 0 1-.9.54Zm0-28v.09c.29.65.56 1.27.86 1.85.2.39.41.76.62 1.14.42.69.78 1.4 1.1 2.14.61 1.44 1.3 2.84 2.09 4.2l.4.74a1.75 1.75 0 0 1 0 1.89l-.17.27c-.12.2-.25.4-.36.61l-.28.5c-.25.41-.47.84-.64 1.29-1 2.6-1.83 5.24-2.5 7.93-.2.81-.46 1.61-.75 2.4-.15.39-.29.79-.42 1.19a2 2 0 0 0-.15.68c.02.06.06.12.11.17l.25-.39a3 3 0 0 0 .27-.53c.46-1.28.9-2.57 1.34-3.86.13-.38.24-.77.36-1.15.25-.8.55-1.58.91-2.34.21-.49.44-1 .67-1.45.64-1.3 1.2-2.64 1.68-4 .05-.15.12-.3.19-.44l.34-.73.61.5c.13.09.24.2.35.31A6.9 6.9 0 0 1 47 16.91l.11.35c.25.74.51 1.51.82 2.23 1 2.2 1.87 4.19 2.77 6.1.33.64.7 1.27 1.1 1.87l.1.15L50.79 25l-2.18-5-.56-1.26c-.52-1.1-.98-2.22-1.37-3.36a22.21 22.21 0 0 0-2.48-4.91l-.44-.71c-1-1.65-2-3.3-2.94-5l-.65-1.12c-.38-.64-.75-1.29-1.14-2l-.29-.52a.25.25 0 0 0-.09.09l-.04-.03Zm128.58.47c.82-.14 1.2.07 1.26.71.31 2.13.44 4.29.38 6.44-.18 2.49-.38 5-.47 7.48-.04 1.37.03 2.73.21 4.09.28 2.75.36 5.51.26 8.27 0 .39-.07.71-.53.75-.46.04-.65-.28-.71-.62-.18-1-.32-2-.44-3-.05-.43 0-.88 0-1.31 0-3.26-.13-6.51-.16-9.77 0-1.83 0-3.67.05-5.5 0-.81.16-1.62.17-2.43V1.65"/>
  <path fill="#000" d="M168.22 29.84a1.07 1.07 0 0 1-1.06-1c-.17-.91-.31-1.9-.44-3a5.4 5.4 0 0 1 0-.9v-.45l-.06-3.14c0-2.21-.09-4.43-.11-6.63 0-2 0-3.9.05-5.52 0-.41 0-.83.08-1.24.08-.41.08-.79.09-1.19V1.29l.37-.07c.17-.03.33-.05.5-.05a1.16 1.16 0 0 1 1.27 1.15c0 .41.08.81.13 1.22.24 1.75.32 3.52.25 5.29l-.06.71c-.16 2.22-.33 4.5-.41 6.75-.03 1.34.03 2.67.2 4 .28 2.77.37 5.56.27 8.34 0 .72-.32 1.12-.93 1.18l-.14.03Zm-.59-27.79v4.71c0 .42 0 .84-.09 1.26-.09.42-.08.78-.09 1.17 0 1.61-.07 3.52 0 5.49 0 2.2.06 4.41.1 6.62l.06 3.14v.49c-.02.26-.02.52 0 .78.13 1.11.27 2.08.43 3 0 .27.14.27.2.27v.44-.44h.1s0-.06.05-.29c.1-2.74 0-5.49-.27-8.22a26.06 26.06 0 0 1-.2-4.16c.08-2.26.24-4.56.41-6.78v-.72c.08-1.71 0-3.43-.24-5.13l-.13-1.22c-.04-.41-.04-.41-.33-.41Zm2.53.01a1.62 1.62 0 0 1 1.85.23 8.58 8.58 0 0 1 3 3.51 24.21 24.21 0 0 1 1.63 5.05c.19 1 .19 2 0 3a17.9 17.9 0 0 1-2.25 6.29 4.22 4.22 0 0 1-2.21 1.86 1.43 1.43 0 0 1 0-1.2c.09-.25.21-.48.37-.69a14.1 14.1 0 0 0 2.32-7.11c.08-.72.12-1.45.1-2.17a9 9 0 0 0-.78-2.83c-.65-1.6-1.68-3-3-4.1a3.56 3.56 0 0 1-1-1.84"/>
  <path fill="#000" d="m172 22.56-.17-.34a1.85 1.85 0 0 1 0-1.55c.1-.28.25-.55.43-.79 1.43-1.92 1.92-4.15 2.23-6.91.07-.7.1-1.41.09-2.12a6.42 6.42 0 0 0-.59-2.25l-.16-.44a9.8 9.8 0 0 0-2.88-3.93 4.14 4.14 0 0 1-1.17-2.05l-.1-.35.33-.16a2 2 0 0 1 2.32.28 8.9 8.9 0 0 1 3.17 3.68c.74 1.65 1.3 3.37 1.66 5.14.2 1.05.2 2.14 0 3.19a18.34 18.34 0 0 1-2.31 6.44 4.57 4.57 0 0 1-2.49 2l-.36.16Zm-1.3-20.24c.15.48.42.91.79 1.25a10.7 10.7 0 0 1 3.11 4.28l.16.43c.37.8.59 1.67.65 2.56.01.74-.02 1.48-.1 2.22a14.47 14.47 0 0 1-2.4 7.34 2.49 2.49 0 0 0-.42 1.03c.66-.34 1.2-.86 1.58-1.5a17.5 17.5 0 0 0 2.19-6.14 7.7 7.7 0 0 0 0-2.87c-.36-1.7-.9-3.34-1.61-4.92a8.07 8.07 0 0 0-3.4-3.63 1.3 1.3 0 0 0-.55-.05ZM7.41 15c.28 0 .46-.11.59-.06.9.26 1.73.7 2.46 1.27A16 16 0 0 1 13 18.6a7 7 0 0 1 .76 7.32 5.09 5.09 0 0 1-1.2 1.78c-.37.48-.7.99-1 1.52-.3.42-.67.79-1.08 1.1-.34.26-.65.05-.59-.37.03-.35.13-.7.31-1 .56-1.04.93-2.18 1.1-3.35.05-.34.14-.68.26-1 .42-1 .46-2.12.12-3.15a8 8 0 0 0-1.58-3.43c-.82-1-1.7-2-2.67-3.06"/>
  <path fill="#000" d="M10.13 30.87a.71.71 0 0 1-.54-.25.91.91 0 0 1-.19-.73c.03-.42.16-.82.38-1.18.46-.78.78-1.64.93-2.53 0-.23.1-.46.16-.69l.07-.31c.04-.27.12-.53.22-.78a4 4 0 0 0 .09-2.85c-.13-.6-.32-1.18-.55-1.75a7.5 7.5 0 0 0-1-1.51c-.57-.7-1.17-1.38-1.81-2.09l-1.37-1.6.84-.09h.23a1 1 0 0 1 .57 0l.23.09c.86.27 1.66.7 2.37 1.26l.54.48c.74.59 1.41 1.26 2 2a7.45 7.45 0 0 1 .81 7.75c-.3.72-.74 1.37-1.3 1.91-.2.23-.39.5-.53.77-.13.24-.27.48-.43.7-.34.44-.73.84-1.17 1.19a.9.9 0 0 1-.55.21ZM8.54 15.56c.65.73 1.26 1.42 1.84 2.13a7.68 7.68 0 0 1 1.68 3.6c.41 1.13.4 2.37-.06 3.49-.07.18-.12.38-.15.57 0 .12-.05.24-.08.36l-.16.67c-.18 1-.56 1.96-1.11 2.82-.11.2-.18.43-.21.66a5.29 5.29 0 0 0 1.23-1.5c.18-.37.4-.7.69-1a4.7 4.7 0 0 0 1.1-1.64 6.53 6.53 0 0 0-.72-6.9A11.39 11.39 0 0 0 10.73 17l-.56-.48a5.16 5.16 0 0 0-1.63-.96Zm163.29-2.4c-.83 0-1.19-.35-1.17-1.06.02-.71.53-1.64 1-1.62A1.68 1.68 0 0 1 173 12a1.05 1.05 0 0 1-.32.82 1.07 1.07 0 0 1-.84.3"/>
  <path fill="#000" d="M171.87 13.6h-.05a1.7 1.7 0 0 1-1.25-.45 1.44 1.44 0 0 1-.35-1.07c0-1 .63-2 1.46-2a1.76 1.76 0 0 1 1.24.69 2 2 0 0 1 .51 1.32 1.5 1.5 0 0 1-1.56 1.51Zm-.19-2.68c-.17 0-.56.5-.58 1.19-.02.15.01.31.1.44.19.13.41.2.64.17v.44-.44a.64.64 0 0 0 .65-.43.63.63 0 0 0 .03-.27 1.22 1.22 0 0 0-.3-.72 1 1 0 0 0-.57-.38h.03ZM10.12 22.43A1.44 1.44 0 0 1 9 23.62a.6.6 0 0 1-.52-.88c.2-.32.46-.6.77-.81a.56.56 0 0 1 .86.5"/>
  <path fill="#000" d="M9 24.06a1 1 0 0 1-.88-1.55c.23-.37.53-.69.88-.94a1 1 0 0 1 .55-.18 1 1 0 0 1 1 1c-.02.41-.2.8-.5 1.09-.26.3-.61.5-1 .55l-.05.03Zm.56-1.79a2.1 2.1 0 0 0-.69.7v.12c0 .04.09.1.11.1a.76.76 0 0 0 .42-.28.91.91 0 0 0 .27-.46c.01-.12-.07-.18-.11-.18Z"/>
</svg>
