<svg width="22" height="22" viewBox="0 0 22 22" fill="none" xmlns="http://www.w3.org/2000/svg">
<path fill-rule="evenodd" clip-rule="evenodd" d="M1.51239 9.74888C7.41795 7.20867 11.3559 5.534 13.3263 4.72489C18.9521 2.4147 20.1211 2.01339 20.883 2.00014C21.0506 1.99723 21.4253 2.03823 21.668 2.23267C21.873 2.39685 21.9294 2.61863 21.9563 2.77429C21.9833 2.92995 22.0169 3.28455 21.9902 3.56163C21.6854 6.7241 20.3662 14.3986 19.6951 17.9406C19.4111 19.4394 18.852 19.9419 18.3107 19.9911C17.1343 20.098 16.2409 19.2235 15.1015 18.4861C13.3186 17.3323 12.3113 16.614 10.5807 15.488C8.58058 14.1868 9.87715 13.4716 11.017 12.3027C11.3153 11.9969 16.4986 7.34226 16.5989 6.92001C16.6115 6.86721 16.6231 6.67036 16.5046 6.56642C16.3862 6.46248 16.2114 6.49802 16.0852 6.52629C15.9064 6.56636 13.0581 8.42501 7.54035 12.1022C6.73187 12.6503 5.99958 12.9174 5.34347 12.9034C4.62016 12.888 3.2288 12.4996 2.19447 12.1677C0.925826 11.7606 -0.0824703 11.5453 0.00532971 10.8539C0.0510613 10.4937 0.553413 10.1254 1.51239 9.74888Z" fill="white"/>
</svg>
